<?xml version="1.0" encoding="utf-8"?>
<!-- Generator: Adobe Illustrator 16.0.0, SVG Export Plug-In . SVG Version: 6.00 Build 0)  -->
<!DOCTYPE svg PUBLIC "-//W3C//DTD SVG 1.1//EN" "http://www.w3.org/Graphics/SVG/1.1/DTD/svg11.dtd">
<svg version="1.1" id="Layer_1" xmlns="http://www.w3.org/2000/svg" xmlns:xlink="http://www.w3.org/1999/xlink" x="0px" y="0px"
	 width="492px" height="131px" viewBox="0 0 492 131" enable-background="new 0 0 492 131" xml:space="preserve">
<g>
	<path fill="none" d="M508.012-19.884c0.007-3.172-0.298-4.226-3.96-4.223c-171.416,0.123-342.833,0.125-514.25-0.008
		c-3.823-0.003-3.872,1.3-3.867,4.31c0.088,56.139,0.123,112.279-0.055,168.417c-0.013,4.079,1.322,4.438,4.75,4.436
		c85.458-0.088,170.917-0.069,256.376-0.069c85.625,0,171.249-0.023,256.874,0.088c3.307,0.004,4.166-0.499,4.156-4.033
		C507.89,92.728,507.903,36.421,508.012-19.884z M65.38,69.95c-2.453,11.091-16.764,23.308-29.574,22.277
		C24.09,92.43,16.71,85.546,10.341,77.048c-0.449-0.6-0.624-2.206-0.266-2.481c2.623-2.01,5.388-3.842,8.211-5.56
		c0.19-0.115,1.522,1.04,1.815,1.799c1.364,3.541,2.43,7.198,3.823,10.726c2.876,7.287,10.875,10.024,16.766,7.911
		c7.229-2.594,12.418-11.721,9.9-18.536c-1.357-3.671-4.031-7.307-7.057-9.817c-6.619-5.493-13.88-10.204-20.803-15.337
		c-4.665-3.459-5.709-8.899-2.114-13.529c5.935-7.642,13.726-12.38,23.566-13.32c1.976-0.188,3.947-0.72,5.909-0.671
		c1.231,0.03,2.442,0.85,3.662,1.316c-1.062,0.506-2.078,1.269-3.194,1.466c-2.768,0.49-5.604,0.598-8.372,1.086
		c-4.36,0.771-7.33,3.695-7.974,7.78c-0.624,3.959,1.251,6.616,4.568,8.607c4.835,2.902,9.882,5.579,14.263,9.072
		c3.958,3.157,7.439,7.05,10.576,11.052C66.146,61.834,66.324,65.687,65.38,69.95z M133.318,65.1
		c-5.114,11.166-11.971,20.779-24.091,25.211c-19.041,6.963-35.234-2.749-35.319-25.108c0.51-18.061,13.149-39.723,32.312-44.677
		c4.131-1.068,8.179-1.728,12.704-0.938c11.821,2.067,13.63,9.115,11.538,19.428c-1.307,6.439-5.1,11.818-9.544,16.669
		c-7.387,8.063-15.909,14.509-25.949,18.974c-4.406,1.961-4.146,2.086-0.976,5.787c6.508,7.599,20.832,8.881,28.972-3.432
		c2.736-4.14,4.886-8.663,7.443-12.928c0.496-0.827,1.642-1.265,2.488-1.883C133.058,63.179,133.659,64.354,133.318,65.1z
		 M199.53,64.783c-5.522,11.996-12.951,22.189-26.304,26.207c-17.07,5.135-31.252-2.64-33.177-21.923
		c-1.786-17.891,11.083-43.055,32.268-48.608c4.497-1.179,8.93-1.863,13.701-0.651c8.247,2.095,11.087,5.307,11.104,13.947
		c-0.175,8.654-4.505,15.452-9.979,21.633c-7.361,8.311-16.093,14.798-26.286,19.336c-4.177,1.859-3.927,2.044-1.14,5.447
		c6.607,8.069,20.475,7.901,26.359,0.125c3.187-4.21,5.899-8.784,8.758-13.237c0.893-1.391,1.479-2.98,2.39-4.356
		c0.252-0.383,1.268-0.583,1.747-0.395c0.418,0.164,0.642,0.973,0.817,1.539C199.87,64.108,199.667,64.486,199.53,64.783z
		 M243.112,90.32c-7.291,2.809-14.664,3.014-21.703-0.66c-2.8-1.461-3.402-0.932-3.375,1.96c0.072,7.663,0.042,15.327,0.009,22.99
		c-0.023,5.329-0.056,5.331-5.203,5.4c-0.833,0.012-1.676-0.084-2.497,0.013c-3.575,0.425-4.54-1.291-4.508-4.65
		c0.132-13.827,0.055-27.656,0.055-41.483c-0.002-13.494-0.019-26.989,0.005-40.484c0.01-5.422,0.05-5.424,5.623-5.456
		c1-0.005,2.002,0.07,2.998,0.007c2.56-0.161,3.696,1.016,3.531,3.554c-0.054,0.829-0.068,1.673,0.025,2.496
		c0.105,0.932,0.351,1.85,0.536,2.774c0.691-0.6,1.479-1.118,2.058-1.812c6.465-7.733,14.158-13.358,24.298-15.48
		c12.01-2.511,24.299,5.02,26.998,16.962C276.832,57.988,263.822,82.345,243.112,90.32z M331.46,92.122
		c-8.729-0.198-7.43,0.331-7.603-7.518c-0.062-2.777-0.31-5.552-0.473-8.326c-1.812,1.776-3.63,3.547-5.438,5.328
		c-6.218,6.126-13.575,10.047-22.246,11.312c-10.741,1.566-18.894-7.354-16.355-17.867c3.411-14.13,12.814-23.799,24.3-31.629
		c4.477-3.051,9.655-5.116,14.628-7.379c3.848-1.751,4.108-2.228,1.51-5.532c-6.758-8.59-19.745-9.96-28.652-3.128
		c-1.289,0.988-2.977,1.458-4.479,2.168c1.125-1.352,2.026-3.02,3.413-4.003c8.508-6.041,17.924-8.97,28.155-5.807
		c10.264,3.172,17.628,14.598,17.797,26.397c0.098,6.824,0.018,13.65,0.018,20.474c-0.001,6.991-0.15,13.986,0.062,20.971
		C336.203,91.117,334.877,92.2,331.46,92.122z M412.935,93.021c-0.122,10.417-5.654,17.449-14.695,21.875
		c-15.035,7.358-29.288,5.002-42.868-3.921c-0.681-0.447-1.021-1.414-1.52-2.138c1.039-0.208,2.256-0.872,3.087-0.548
		c4.167,1.626,8.143,3.771,12.353,5.261c15.707,5.555,30.657-5.116,30.791-21.851c0.033-4.161,0.034-8.322-0.018-12.483
		c-0.012-0.947-0.302-1.893-0.465-2.839c-0.732,0.571-1.574,1.047-2.182,1.729c-4.822,5.422-10.394,9.793-17.233,12.389
		c-11.648,4.42-21.008,2.5-28.418-6.132c-4.695-5.47-6.248-12.255-5.767-19.077c1.284-18.173,9.197-32.792,25.348-42.007
		c7.938-4.53,16.546-5.807,25.31-1.951c1.755,0.772,2.323-0.331,3.643-1.005c2.785-1.425,6.563-1.269,9.878-1.021
		c0.75,0.057,1.792,3.132,1.815,4.829c0.161,11.478,0.084,22.959,0.084,34.439c0.296,0,0.592,0,0.888-0.001
		C412.965,70.055,413.068,81.539,412.935,93.021z M483.067,64.719c-1.039,2.44-2.145,4.881-3.508,7.15
		c-7.163,11.927-17.076,20.168-31.464,20.685c-10.73,0.385-19.749-4.892-23.1-17.197c-0.861-3.166-1-6.529-1.515-10.108
		c2.119-18.96,9.635-34.586,28.017-43.087c5.574-2.577,11.418-3.777,17.869-2.434c10.395,2.166,13.296,8.923,11.031,18.511
		c-2.611,11.066-9.938,19.127-18.573,25.817c-5.465,4.233-11.685,7.558-17.802,10.852c-3.077,1.656-2.75,2.521-0.759,4.949
		c7.416,9.049,22.03,8.591,29.368-2.646c2.446-3.747,4.473-7.767,6.677-11.67c0.409-0.723,0.595-1.661,1.172-2.176
		c0.65-0.579,1.627-0.792,2.462-1.164C483.003,63.049,483.363,64.022,483.067,64.719z"/>
	<path fill-rule="evenodd" clip-rule="evenodd" fill="#5F21FF" d="M412.965,58.57c0,11.484,0.104,22.969-0.03,34.451
		c-0.122,10.417-5.654,17.449-14.695,21.875c-15.035,7.358-29.288,5.002-42.868-3.921c-0.681-0.447-1.918-1.175-1.52-2.138
		s2.256-0.872,3.087-0.548c4.167,1.626,8.143,3.771,12.353,5.261c15.707,5.555,30.657-5.116,30.791-21.851
		c0.033-4.161,0.034-8.322-0.018-12.483c-0.012-0.947-0.302-1.893-0.465-2.839c-0.732,0.571-1.574,1.047-2.182,1.729
		c-4.822,5.422-10.394,9.793-17.233,12.389c-11.648,4.42-21.008,2.5-28.418-6.132c-4.695-5.47-6.248-12.255-5.767-19.077
		c1.284-18.173,9.197-32.792,25.348-42.007c7.938-4.53,16.546-5.807,25.31-1.951c1.755,0.772,2.323-0.331,3.643-1.005
		c2.785-1.425,8.243-2.404,9.878-1.021s1.792,3.132,1.815,4.829C412.154,35.61,412.669,58.571,412.965,58.57z M400.004,59.743
		c0.187-10.917-2.558-19.598-9.024-26.917c-8.562-9.692-19.664-10.384-28.536,0.119c-11.034,13.062-8.83,35.077,3.447,47.299
		c9.946,9.904,21.458,7.858,28.844-3.405C398.346,71.33,400.284,65.185,400.004,59.743z"/>
	<path fill-rule="evenodd" clip-rule="evenodd" fill="#5F21FF" d="M205.891,73.89c-0.001-13.494-0.018-26.989,0.006-40.484
		c0.01-5.422,0.05-5.424,5.623-5.456c1-0.005,2.002,0.07,2.998,0.007c2.56-0.161,3.696,1.016,3.531,3.554
		c-0.054,0.829-0.068,1.673,0.025,2.496c0.105,0.932,0.351,1.85,0.536,2.774c0.691-0.6,1.479-1.118,2.058-1.812
		c6.465-7.733,14.158-13.358,24.298-15.48c12.01-2.511,24.299,5.02,26.998,16.962c4.869,21.537-8.141,45.894-28.851,53.869
		c-7.291,2.809-14.664,3.014-21.703-0.66c-2.8-1.461-3.402-0.932-3.375,1.96c0.072,7.663,0.042,15.327,0.009,22.99
		c-0.023,5.329-0.056,5.331-5.203,5.4c-0.833,0.012-1.676-0.084-2.497,0.013c-3.575,0.425-4.54-1.291-4.508-4.65
		C205.969,101.546,205.892,87.717,205.891,73.89z M219.025,50.381c-0.055,10.139,1.239,16.95,4.93,23.087
		c4.387,7.292,9.991,12.778,19.403,12.532c8.105-0.213,12.818-5.299,16.177-11.59c7.81-14.625,4.203-35.207-9.779-45.854
		c-6.737-5.131-14.557-4.554-20.956,1.204C221.764,36.09,219.231,44.264,219.025,50.381z"/>
	<path fill-rule="evenodd" clip-rule="evenodd" fill="#5F21FF" d="M336.034,66.612c-0.001,6.991-0.15,13.986,0.062,20.971
		c0.107,3.534-1.219,4.617-4.636,4.539c-8.729-0.198-7.43,0.331-7.603-7.518c-0.062-2.777-0.31-5.552-0.473-8.326
		c-1.812,1.776-3.63,3.547-5.438,5.328c-6.218,6.126-13.575,10.047-22.246,11.312c-10.741,1.566-18.894-7.354-16.355-17.867
		c3.411-14.13,12.814-23.799,24.3-31.629c4.477-3.051,9.655-5.116,14.628-7.379c3.848-1.751,4.108-2.228,1.51-5.532
		c-6.758-8.59-19.745-9.96-28.652-3.128c-1.289,0.988-3.953,2.97-4.479,2.168s2.026-3.02,3.413-4.003
		c8.508-6.041,17.924-8.97,28.155-5.807c10.264,3.172,17.628,14.598,17.797,26.397C336.114,52.962,336.034,59.788,336.034,66.612z
		 M323.872,52.659c0-3.161,0.024-6.323-0.005-9.483c-0.051-5.467-1-6.085-6.222-4.24c-8.722,3.082-15.829,8.545-21.418,15.702
		c-3.866,4.952-6.838,10.491-6.239,17.375c0.842,9.693,8.764,15.625,18.024,13.066c8.275-2.288,12.726-8.351,14.614-16.121
		C323.902,63.711,324.033,52.675,323.872,52.659z"/>
	<path fill-rule="evenodd" clip-rule="evenodd" fill="#5F21FF" d="M35.806,92.228C24.09,92.43,16.71,85.546,10.341,77.048
		c-0.449-0.6-0.624-2.206-0.266-2.481c2.623-2.01,5.388-3.842,8.211-5.56c0.19-0.115,1.292,0.398,1.815,1.799
		s2.43,7.198,3.823,10.726c2.876,7.287,10.875,10.024,16.766,7.911c7.229-2.594,12.418-11.721,9.9-18.536
		c-1.357-3.671-4.031-7.307-7.057-9.817c-6.619-5.493-13.88-10.204-20.803-15.337c-4.665-3.459-5.709-8.899-2.114-13.529
		c5.935-7.642,13.726-12.38,23.566-13.32c1.976-0.188,3.947-0.72,5.909-0.671c1.231,0.03,3.603,0.426,3.662,1.316
		s-2.078,1.269-3.194,1.466c-2.768,0.49-5.604,0.598-8.372,1.086c-4.36,0.771-7.33,3.695-7.974,7.78
		c-0.624,3.959,1.251,6.616,4.568,8.607c4.835,2.902,9.882,5.579,14.263,9.072c3.958,3.157,7.439,7.05,10.576,11.052
		c2.525,3.223,2.703,7.075,1.76,11.339C62.928,81.041,48.616,93.258,35.806,92.228z"/>
	<path fill-rule="evenodd" clip-rule="evenodd" fill="#5F21FF" d="M73.907,65.202c0.51-18.061,13.149-39.723,32.312-44.677
		c4.131-1.068,8.179-1.728,12.704-0.938c11.821,2.067,13.63,9.115,11.538,19.428c-1.307,6.439-5.1,11.818-9.544,16.669
		c-7.387,8.063-15.909,14.509-25.949,18.974c-4.406,1.961-4.146,2.086-0.976,5.787c6.508,7.599,20.832,8.881,28.972-3.432
		c2.736-4.14,4.886-8.663,7.443-12.928c0.496-0.827,1.508-2.18,2.488-1.883s0.764,2.151,0.423,2.896
		c-5.114,11.166-11.971,20.779-24.091,25.211C90.186,97.273,73.992,87.562,73.907,65.202z M122.906,42.518
		c0.984-6.816-6.735-13.937-12.755-16.093c-7.158-2.566-15.351,0.027-19.91,6.149c-7.936,10.655-8.015,22.433-4.608,34.539
		c1.424,5.062,3.125,5.668,8.186,3.981c9.723-3.241,17.822-9.015,24.079-16.983C120.431,50.884,123.36,47.284,122.906,42.518z"/>
	<path fill-rule="evenodd" clip-rule="evenodd" fill="#5F21FF" d="M197.122,33.754c-0.175,8.654-4.505,15.452-9.979,21.633
		c-7.361,8.311-16.093,14.798-26.286,19.336c-4.177,1.859-3.927,2.044-1.14,5.447c6.607,8.069,20.475,7.901,26.359,0.125
		c3.187-4.21,5.899-8.784,8.758-13.237c0.893-1.391,1.479-2.98,2.39-4.356c0.252-0.383,1.268-0.583,1.747-0.395
		c0.418,0.164,0.642,0.973,0.817,1.539c0.081,0.262-0.122,0.64-0.258,0.937c-5.522,11.996-12.951,22.189-26.304,26.207
		c-17.07,5.135-31.252-2.64-33.177-21.923c-1.786-17.891,11.083-43.055,32.268-48.608c4.497-1.179,8.93-1.863,13.701-0.651
		C194.265,21.902,197.105,25.115,197.122,33.754z M188.901,42.107c0.887-6.271-6.802-13.735-13.144-15.821
		c-7.06-2.321-15.021,0.245-19.47,6.218c-8.047,10.807-8.144,22.719-4.485,34.975c1.423,4.765,2.981,5.268,7.921,3.639
		c9.739-3.21,17.835-8.99,24.113-16.937C186.485,50.828,189.499,47.076,188.901,42.107z"/>
	<path fill-rule="evenodd" clip-rule="evenodd" fill="#5F21FF" d="M482.943,62.201c-0.818-0.826-1.812,0.585-2.462,1.164
		c-0.577,0.515-0.763,1.453-1.172,2.176c-2.204,3.903-4.23,7.923-6.677,11.67c-7.338,11.237-21.952,11.695-29.368,2.646
		c-1.991-2.428-2.318-3.293,0.759-4.949c6.117-3.294,12.337-6.618,17.802-10.852c8.636-6.689,15.962-14.75,18.573-25.817
		c2.265-9.588-0.637-16.345-11.031-18.511c-6.451-1.343-12.295-0.144-17.869,2.434c-18.382,8.5-28.748,32.089-28.017,43.087
		c0.231,3.477,1.225,9.042,1.515,10.108c3.351,12.306,12.369,17.582,23.1,17.197c14.388-0.517,24.301-8.758,31.464-20.685
		c1.363-2.27,2.469-4.71,3.508-7.15C483.363,64.022,483.762,63.026,482.943,62.201z M435.65,67.912
		c-1.438-4.883-2.34-4.159-2.808-13.911s2.923-17.95,9.728-23.959c4.749-4.193,10.274-6.1,16.521-3.797
		c6.535,2.409,11.796,6.432,13.545,13.523c1.536,6.229-2.347,10.969-5.79,15.312c-6.227,7.852-14.492,13.111-24.004,16.26
		C438.579,72.752,436.894,72.139,435.65,67.912z"/>
</g>
<g>
	<path fill="#5F21FF" d="M25.99,116.818c0.392,0,0.722,0.135,0.991,0.403c0.269,0.269,0.403,0.595,0.403,0.978
		s-0.137,0.709-0.41,0.978s-0.602,0.403-0.984,0.403s-0.709-0.135-0.978-0.403c-0.269-0.269-0.403-0.595-0.403-0.978
		s0.134-0.709,0.403-0.978C25.281,116.953,25.607,116.818,25.99,116.818z"/>
	<path fill="#5F21FF" d="M32.99,116.818c0.392,0,0.722,0.135,0.991,0.403c0.269,0.269,0.403,0.595,0.403,0.978
		s-0.137,0.709-0.41,0.978s-0.602,0.403-0.984,0.403s-0.709-0.135-0.978-0.403c-0.269-0.269-0.403-0.595-0.403-0.978
		s0.134-0.709,0.403-0.978C32.281,116.953,32.607,116.818,32.99,116.818z"/>
	<path fill="#5F21FF" d="M39.99,116.818c0.392,0,0.722,0.135,0.991,0.403c0.269,0.269,0.403,0.595,0.403,0.978
		s-0.137,0.709-0.41,0.978s-0.602,0.403-0.984,0.403s-0.709-0.135-0.978-0.403c-0.269-0.269-0.403-0.595-0.403-0.978
		s0.134-0.709,0.403-0.978C39.281,116.953,39.607,116.818,39.99,116.818z"/>
	<path fill="#5F21FF" d="M57.804,106.893l-2.666,9.27l-0.301,1.244c-0.027,0.118-0.041,0.219-0.041,0.301
		c0,0.146,0.045,0.273,0.137,0.383c0.073,0.082,0.164,0.123,0.273,0.123c0.118,0,0.273-0.073,0.465-0.219
		c0.355-0.265,0.829-0.812,1.422-1.641l0.465,0.328c-0.629,0.948-1.276,1.67-1.941,2.167c-0.666,0.497-1.281,0.745-1.846,0.745
		c-0.392,0-0.686-0.098-0.882-0.294c-0.196-0.196-0.294-0.48-0.294-0.854c0-0.446,0.1-1.034,0.301-1.764l0.287-1.025
		c-1.194,1.559-2.292,2.647-3.295,3.268c-0.72,0.446-1.427,0.67-2.119,0.67c-0.666,0-1.24-0.275-1.723-0.827
		c-0.483-0.552-0.725-1.311-0.725-2.276c0-1.449,0.435-2.979,1.306-4.587c0.87-1.608,1.976-2.896,3.315-3.862
		c1.048-0.766,2.037-1.148,2.967-1.148c0.556,0,1.019,0.146,1.388,0.438s0.649,0.774,0.841,1.449l0.492-1.559L57.804,106.893z
		 M52.937,107.604c-0.583,0-1.203,0.273-1.859,0.82c-0.93,0.774-1.757,1.923-2.481,3.445s-1.087,2.898-1.087,4.129
		c0,0.62,0.155,1.109,0.465,1.47c0.31,0.36,0.665,0.54,1.066,0.54c0.993,0,2.073-0.733,3.24-2.201
		c1.559-1.95,2.338-3.951,2.338-6.002c0-0.774-0.15-1.335-0.451-1.682S53.457,107.604,52.937,107.604z"/>
	<path fill="#5F21FF" d="M71.859,106.893l-0.943,3.145c0.993-1.167,1.88-1.982,2.659-2.447s1.574-0.697,2.386-0.697
		c0.811,0,1.504,0.321,2.078,0.964s0.861,1.479,0.861,2.509c0,2.005-0.816,4.045-2.447,6.118c-1.632,2.073-3.532,3.11-5.701,3.11
		c-0.456,0-0.859-0.05-1.21-0.15c-0.351-0.101-0.745-0.278-1.183-0.533l-0.998,3.527c-0.201,0.692-0.301,1.144-0.301,1.354
		c0,0.2,0.052,0.371,0.157,0.513c0.104,0.142,0.275,0.251,0.513,0.328c0.237,0.077,0.706,0.116,1.408,0.116l-0.123,0.506h-6.439
		l0.137-0.506c0.848-0.036,1.42-0.183,1.716-0.438c0.296-0.255,0.608-0.962,0.937-2.119l3.459-11.977
		c0.209-0.757,0.314-1.226,0.314-1.408c0-0.246-0.071-0.438-0.212-0.574c-0.142-0.137-0.358-0.205-0.649-0.205
		c-0.265,0-0.634,0.032-1.107,0.096v-0.533L71.859,106.893z M68.673,117.83c0.565,0.675,1.326,1.012,2.283,1.012
		c0.474,0,0.957-0.132,1.449-0.396s0.973-0.656,1.442-1.176c0.469-0.52,0.891-1.119,1.265-1.798
		c0.374-0.679,0.708-1.479,1.005-2.399c0.296-0.921,0.444-1.832,0.444-2.734c0-0.729-0.167-1.287-0.499-1.675
		c-0.333-0.388-0.723-0.581-1.169-0.581c-0.984,0-1.958,0.565-2.919,1.695c-0.962,1.13-1.666,2.452-2.112,3.965L68.673,117.83z"/>
	<path fill="#5F21FF" d="M92.613,111.172c0,1.367-0.362,2.721-1.087,4.061s-1.734,2.401-3.028,3.186
		c-1.294,0.784-2.552,1.176-3.773,1.176c-1.249,0-2.268-0.398-3.056-1.196c-0.789-0.798-1.183-1.83-1.183-3.097
		c0-1.34,0.385-2.685,1.155-4.033c0.77-1.349,1.8-2.415,3.09-3.199c1.29-0.784,2.536-1.176,3.739-1.176s2.194,0.396,2.974,1.189
		S92.613,109.905,92.613,111.172z M90.343,110.229c0-0.848-0.208-1.497-0.622-1.948c-0.415-0.451-0.95-0.677-1.606-0.677
		c-1.34,0-2.573,0.959-3.698,2.878c-1.126,1.919-1.688,3.826-1.688,5.722c0,0.866,0.219,1.533,0.656,2.003s0.989,0.704,1.654,0.704
		c1.285,0,2.49-0.955,3.616-2.864C89.78,114.137,90.343,112.197,90.343,110.229z"/>
	<path fill="#5F21FF" d="M101.992,99.824l-4.676,16.27c-0.228,0.812-0.342,1.308-0.342,1.49c0,0.137,0.043,0.251,0.13,0.342
		c0.086,0.091,0.193,0.137,0.321,0.137c0.173,0,0.36-0.077,0.561-0.232c0.474-0.374,0.971-0.952,1.49-1.736l0.41,0.424
		c-0.866,1.222-1.664,2.073-2.393,2.557c-0.538,0.347-1.048,0.52-1.531,0.52c-0.347,0-0.636-0.118-0.868-0.355
		s-0.349-0.511-0.349-0.82c0-0.328,0.146-1.003,0.438-2.023l3.705-12.824c0.301-1.048,0.451-1.649,0.451-1.805
		c0-0.219-0.087-0.398-0.26-0.54c-0.173-0.142-0.442-0.212-0.807-0.212c-0.21,0-0.529,0.032-0.957,0.096v-0.506L101.992,99.824z"/>
	<path fill="#5F21FF" d="M105.916,106.893c0.31,0.528,0.524,1.023,0.643,1.483c0.118,0.46,0.237,1.365,0.355,2.714l0.602,6.727
		c0.547-0.656,1.34-1.695,2.379-3.117c0.501-0.692,1.121-1.636,1.859-2.83c0.446-0.729,0.72-1.239,0.82-1.531
		c0.055-0.146,0.082-0.296,0.082-0.451c0-0.101-0.032-0.183-0.096-0.246c-0.064-0.063-0.23-0.139-0.499-0.226
		c-0.269-0.087-0.492-0.246-0.67-0.479s-0.267-0.499-0.267-0.8c0-0.374,0.109-0.675,0.328-0.902s0.492-0.342,0.82-0.342
		c0.401,0,0.743,0.166,1.025,0.499c0.282,0.333,0.424,0.791,0.424,1.374c0,0.72-0.246,1.543-0.738,2.468s-1.44,2.345-2.844,4.259
		c-1.404,1.914-3.104,4.001-5.1,6.262c-1.376,1.559-2.397,2.541-3.062,2.946s-1.235,0.608-1.709,0.608
		c-0.282,0-0.531-0.107-0.745-0.321c-0.214-0.214-0.321-0.463-0.321-0.745c0-0.355,0.148-0.679,0.444-0.971
		c0.296-0.292,0.618-0.438,0.964-0.438c0.183,0,0.333,0.041,0.451,0.123c0.073,0.046,0.153,0.176,0.239,0.39
		c0.087,0.214,0.166,0.357,0.239,0.431c0.045,0.046,0.1,0.068,0.164,0.068c0.055,0,0.15-0.046,0.287-0.137
		c0.501-0.31,1.084-0.802,1.75-1.477c0.875-0.894,1.522-1.622,1.941-2.188l-0.766-8.668c-0.128-1.431-0.319-2.302-0.574-2.611
		c-0.255-0.31-0.684-0.465-1.285-0.465c-0.191,0-0.533,0.027-1.025,0.082l-0.123-0.506L105.916,106.893z"/>
	<path fill="#5F21FF" d="M122.171,107.221l-0.246,0.902h-1.996l-1.504,5.975c-0.666,2.634-1.335,4.671-2.01,6.111
		c-0.957,2.032-1.987,3.437-3.09,4.211c-0.838,0.593-1.677,0.889-2.516,0.889c-0.547,0-1.012-0.164-1.395-0.492
		c-0.282-0.228-0.424-0.524-0.424-0.889c0-0.292,0.116-0.545,0.349-0.759s0.518-0.321,0.854-0.321c0.246,0,0.454,0.077,0.622,0.232
		c0.169,0.155,0.253,0.333,0.253,0.533s-0.096,0.388-0.287,0.561c-0.146,0.128-0.219,0.224-0.219,0.287
		c0,0.082,0.032,0.146,0.096,0.191c0.082,0.063,0.21,0.096,0.383,0.096c0.392,0,0.805-0.123,1.237-0.369
		c0.433-0.246,0.818-0.613,1.155-1.101c0.337-0.487,0.656-1.191,0.957-2.112c0.127-0.383,0.469-1.646,1.025-3.787l2.379-9.256
		h-2.379l0.191-0.902c0.756,0,1.285-0.053,1.586-0.157s0.576-0.306,0.827-0.602c0.25-0.296,0.576-0.85,0.978-1.661
		c0.538-1.094,1.053-1.941,1.545-2.543c0.674-0.812,1.383-1.42,2.126-1.825c0.743-0.405,1.442-0.608,2.099-0.608
		c0.692,0,1.249,0.176,1.668,0.526c0.419,0.351,0.629,0.731,0.629,1.142c0,0.319-0.105,0.588-0.314,0.807
		c-0.21,0.219-0.479,0.328-0.807,0.328c-0.283,0-0.513-0.082-0.69-0.246s-0.267-0.36-0.267-0.588c0-0.146,0.059-0.326,0.178-0.54
		c0.118-0.214,0.178-0.357,0.178-0.431c0-0.128-0.041-0.224-0.123-0.287c-0.119-0.091-0.292-0.137-0.52-0.137
		c-0.574,0-1.089,0.183-1.545,0.547c-0.611,0.483-1.158,1.239-1.641,2.27c-0.246,0.538-0.697,1.873-1.354,4.006H122.171z"/>
	<path fill="#5F21FF" d="M128.091,106.893l-2.707,9.584c-0.183,0.647-0.273,1.034-0.273,1.162c0,0.146,0.043,0.265,0.13,0.355
		c0.086,0.091,0.189,0.137,0.308,0.137c0.137,0,0.301-0.073,0.492-0.219c0.52-0.41,1.043-0.993,1.572-1.75l0.479,0.314
		c-0.62,0.948-1.349,1.745-2.188,2.393c-0.62,0.483-1.212,0.725-1.777,0.725c-0.374,0-0.679-0.111-0.916-0.335
		c-0.237-0.224-0.355-0.504-0.355-0.841s0.114-0.897,0.342-1.682l1.777-6.125c0.292-1.003,0.438-1.632,0.438-1.887
		c0-0.2-0.071-0.364-0.212-0.492c-0.142-0.128-0.335-0.191-0.581-0.191c-0.201,0-0.615,0.05-1.244,0.15v-0.533L128.091,106.893z
		 M127.914,101.465c0.383,0,0.706,0.132,0.971,0.396c0.264,0.265,0.396,0.588,0.396,0.971c0,0.374-0.135,0.695-0.403,0.964
		c-0.269,0.269-0.59,0.403-0.964,0.403c-0.374,0-0.695-0.135-0.964-0.403c-0.269-0.269-0.403-0.59-0.403-0.964
		c0-0.383,0.132-0.706,0.396-0.971C127.207,101.597,127.531,101.465,127.914,101.465z"/>
	<path fill="#5F21FF" d="M137.511,99.824l-2.693,9.447c0.875-0.911,1.638-1.536,2.29-1.873c0.651-0.337,1.333-0.506,2.044-0.506
		c1.002,0,1.823,0.333,2.461,0.998c0.638,0.665,0.957,1.567,0.957,2.707c0,1.468-0.419,2.928-1.258,4.382
		c-0.839,1.454-1.892,2.586-3.158,3.397c-1.267,0.812-2.516,1.217-3.746,1.217c-1.376,0-2.789-0.515-4.238-1.545l4.156-14.314
		c0.319-1.103,0.479-1.75,0.479-1.941c0-0.237-0.073-0.415-0.219-0.533c-0.21-0.164-0.52-0.246-0.93-0.246
		c-0.191,0-0.483,0.032-0.875,0.096v-0.52L137.511,99.824z M132.22,118.199c0.911,0.501,1.713,0.752,2.406,0.752
		c0.802,0,1.634-0.294,2.495-0.882s1.608-1.579,2.242-2.974c0.633-1.395,0.95-2.803,0.95-4.225c0-0.839-0.208-1.495-0.622-1.969
		c-0.415-0.474-0.905-0.711-1.47-0.711c-0.848,0-1.677,0.34-2.488,1.019c-0.812,0.679-1.39,1.625-1.736,2.837L132.22,118.199z"/>
	<path fill="#5F21FF" d="M144.894,107.658l4.717-0.766l-1.969,6.645c1.595-2.726,3.044-4.63,4.348-5.715
		c0.738-0.62,1.34-0.93,1.805-0.93c0.301,0,0.538,0.089,0.711,0.267c0.173,0.178,0.26,0.436,0.26,0.772
		c0,0.602-0.155,1.176-0.465,1.723c-0.219,0.41-0.533,0.615-0.943,0.615c-0.21,0-0.39-0.068-0.54-0.205s-0.244-0.347-0.28-0.629
		c-0.019-0.173-0.06-0.287-0.123-0.342c-0.073-0.073-0.16-0.109-0.26-0.109c-0.155,0-0.301,0.036-0.438,0.109
		c-0.237,0.128-0.597,0.483-1.08,1.066c-0.757,0.894-1.577,2.051-2.461,3.473c-0.383,0.602-0.711,1.28-0.984,2.037
		c-0.383,1.039-0.602,1.663-0.656,1.873l-0.438,1.723h-2.092l2.529-8.49c0.292-0.984,0.438-1.687,0.438-2.105
		c0-0.164-0.068-0.301-0.205-0.41c-0.183-0.146-0.424-0.219-0.725-0.219c-0.191,0-0.542,0.041-1.053,0.123L144.894,107.658z"/>
	<path fill="#5F21FF" d="M166.236,111.172c0,1.367-0.362,2.721-1.087,4.061s-1.734,2.401-3.028,3.186
		c-1.294,0.784-2.552,1.176-3.773,1.176c-1.249,0-2.268-0.398-3.056-1.196c-0.789-0.798-1.183-1.83-1.183-3.097
		c0-1.34,0.385-2.685,1.155-4.033c0.77-1.349,1.8-2.415,3.09-3.199c1.29-0.784,2.536-1.176,3.739-1.176s2.194,0.396,2.974,1.189
		S166.236,109.905,166.236,111.172z M163.966,110.229c0-0.848-0.208-1.497-0.622-1.948c-0.415-0.451-0.95-0.677-1.606-0.677
		c-1.34,0-2.573,0.959-3.698,2.878c-1.126,1.919-1.688,3.826-1.688,5.722c0,0.866,0.219,1.533,0.656,2.003s0.989,0.704,1.654,0.704
		c1.285,0,2.49-0.955,3.616-2.864C163.403,114.137,163.966,112.197,163.966,110.229z"/>
	<path fill="#5F21FF" d="M180.468,107.221l-2.379,8.148c-0.355,1.212-0.533,1.978-0.533,2.297c0,0.164,0.029,0.285,0.089,0.362
		c0.059,0.077,0.139,0.116,0.239,0.116c0.155,0,0.326-0.07,0.513-0.212c0.187-0.142,0.658-0.704,1.415-1.688l0.41,0.314
		c-0.72,1.14-1.458,1.978-2.215,2.516c-0.501,0.347-0.984,0.52-1.449,0.52c-0.355,0-0.634-0.101-0.834-0.301
		c-0.201-0.2-0.301-0.46-0.301-0.779c0-0.31,0.059-0.72,0.178-1.23c0.146-0.675,0.561-2.142,1.244-4.402
		c-1.55,2.543-2.846,4.298-3.89,5.264c-1.044,0.966-2.012,1.449-2.905,1.449c-0.419,0-0.775-0.146-1.066-0.438
		c-0.292-0.292-0.438-0.661-0.438-1.107c0-0.684,0.2-1.731,0.602-3.145l1.189-4.225c0.292-1.012,0.438-1.641,0.438-1.887
		c0-0.109-0.039-0.203-0.116-0.28c-0.078-0.077-0.162-0.116-0.253-0.116c-0.191,0-0.383,0.068-0.574,0.205s-0.625,0.643-1.299,1.518
		l-0.424-0.301c0.684-1.058,1.408-1.837,2.174-2.338c0.583-0.392,1.121-0.588,1.613-0.588c0.337,0,0.613,0.107,0.827,0.321
		c0.214,0.214,0.321,0.49,0.321,0.827c0,0.492-0.183,1.372-0.547,2.639l-1.285,4.416c-0.355,1.203-0.533,1.964-0.533,2.283
		c0,0.173,0.057,0.312,0.171,0.417c0.114,0.104,0.267,0.157,0.458,0.157c0.301,0,0.692-0.15,1.176-0.451
		c0.483-0.301,1.128-0.969,1.935-2.003s1.472-2.005,1.996-2.912c0.524-0.907,1.082-2.35,1.675-4.327l0.301-1.039H180.468z"/>
	<path fill="#5F21FF" d="M191.447,106.893l-0.834,4.197h-0.506c-0.046-1.222-0.306-2.11-0.779-2.666
		c-0.474-0.556-1.062-0.834-1.764-0.834c-0.565,0-1.014,0.155-1.347,0.465c-0.333,0.31-0.499,0.684-0.499,1.121
		c0,0.301,0.066,0.588,0.198,0.861c0.132,0.273,0.421,0.656,0.868,1.148c1.185,1.294,1.95,2.27,2.297,2.926
		c0.346,0.656,0.52,1.276,0.52,1.859c0,0.948-0.395,1.789-1.183,2.522c-0.789,0.733-1.784,1.101-2.987,1.101
		c-0.656,0-1.413-0.155-2.27-0.465c-0.301-0.109-0.533-0.164-0.697-0.164c-0.41,0-0.72,0.21-0.93,0.629h-0.506l0.834-4.43h0.506
		c0.055,1.386,0.342,2.365,0.861,2.939s1.23,0.861,2.133,0.861c0.692,0,1.242-0.193,1.647-0.581
		c0.405-0.388,0.608-0.863,0.608-1.429c0-0.364-0.073-0.702-0.219-1.012c-0.255-0.547-0.791-1.304-1.606-2.27
		c-0.816-0.966-1.34-1.69-1.572-2.174s-0.349-0.966-0.349-1.449c0-0.884,0.321-1.632,0.964-2.242s1.47-0.916,2.481-0.916
		c0.292,0,0.556,0.022,0.793,0.068c0.127,0.027,0.426,0.13,0.896,0.308c0.469,0.178,0.781,0.267,0.937,0.267
		c0.392,0,0.72-0.214,0.984-0.643H191.447z"/>
	<path fill="#5F21FF" d="M240.378,106.893l-0.943,3.145c0.993-1.167,1.88-1.982,2.659-2.447s1.574-0.697,2.386-0.697
		c0.811,0,1.504,0.321,2.079,0.964s0.861,1.479,0.861,2.509c0,2.005-0.816,4.045-2.448,6.118c-1.632,2.073-3.532,3.11-5.701,3.11
		c-0.456,0-0.859-0.05-1.21-0.15s-0.745-0.278-1.183-0.533l-0.998,3.527c-0.2,0.692-0.301,1.144-0.301,1.354
		c0,0.2,0.053,0.371,0.157,0.513s0.275,0.251,0.513,0.328s0.706,0.116,1.408,0.116l-0.123,0.506h-6.439l0.137-0.506
		c0.848-0.036,1.42-0.183,1.716-0.438s0.608-0.962,0.937-2.119l3.459-11.977c0.21-0.757,0.314-1.226,0.314-1.408
		c0-0.246-0.07-0.438-0.212-0.574s-0.357-0.205-0.649-0.205c-0.265,0-0.634,0.032-1.107,0.096v-0.533L240.378,106.893z
		 M237.193,117.83c0.565,0.675,1.326,1.012,2.283,1.012c0.474,0,0.957-0.132,1.449-0.396s0.973-0.656,1.442-1.176
		s0.891-1.119,1.265-1.798s0.709-1.479,1.005-2.399s0.445-1.832,0.445-2.734c0-0.729-0.167-1.287-0.5-1.675
		s-0.723-0.581-1.169-0.581c-0.984,0-1.957,0.565-2.919,1.695s-1.666,2.452-2.112,3.965L237.193,117.83z"/>
	<path fill="#5F21FF" d="M256.512,99.824l-4.676,16.27c-0.229,0.812-0.342,1.308-0.342,1.49c0,0.137,0.043,0.251,0.129,0.342
		c0.088,0.091,0.193,0.137,0.322,0.137c0.172,0,0.359-0.077,0.561-0.232c0.473-0.374,0.971-0.952,1.49-1.736l0.41,0.424
		c-0.867,1.222-1.664,2.073-2.393,2.557c-0.539,0.347-1.049,0.52-1.531,0.52c-0.348,0-0.637-0.118-0.869-0.355
		s-0.348-0.511-0.348-0.82c0-0.328,0.145-1.003,0.438-2.023l3.705-12.824c0.301-1.048,0.451-1.649,0.451-1.805
		c0-0.219-0.088-0.398-0.26-0.54c-0.174-0.142-0.443-0.212-0.807-0.212c-0.211,0-0.529,0.032-0.957,0.096v-0.506L256.512,99.824z"/>
	<path fill="#5F21FF" d="M269.104,106.893l-2.666,9.27l-0.301,1.244c-0.027,0.118-0.041,0.219-0.041,0.301
		c0,0.146,0.045,0.273,0.137,0.383c0.072,0.082,0.164,0.123,0.273,0.123c0.117,0,0.273-0.073,0.465-0.219
		c0.355-0.265,0.828-0.812,1.422-1.641l0.465,0.328c-0.629,0.948-1.277,1.67-1.941,2.167c-0.666,0.497-1.281,0.745-1.846,0.745
		c-0.393,0-0.686-0.098-0.883-0.294c-0.195-0.196-0.293-0.48-0.293-0.854c0-0.446,0.1-1.034,0.301-1.764l0.287-1.025
		c-1.195,1.559-2.293,2.647-3.295,3.268c-0.721,0.446-1.428,0.67-2.119,0.67c-0.666,0-1.24-0.275-1.723-0.827
		c-0.484-0.552-0.725-1.311-0.725-2.276c0-1.449,0.436-2.979,1.305-4.587c0.871-1.608,1.977-2.896,3.316-3.862
		c1.047-0.766,2.037-1.148,2.967-1.148c0.555,0,1.018,0.146,1.387,0.438s0.65,0.774,0.842,1.449l0.492-1.559L269.104,106.893z
		 M264.236,107.604c-0.584,0-1.203,0.273-1.859,0.82c-0.93,0.774-1.758,1.923-2.482,3.445s-1.086,2.898-1.086,4.129
		c0,0.62,0.154,1.109,0.465,1.47c0.309,0.36,0.664,0.54,1.066,0.54c0.992,0,2.072-0.733,3.24-2.201
		c1.559-1.95,2.338-3.951,2.338-6.002c0-0.774-0.15-1.335-0.451-1.682S264.756,107.604,264.236,107.604z"/>
	<path fill="#5F21FF" d="M277.238,103.502l-1.066,3.719h2.146l-0.232,0.861h-2.133l-2.352,8.066
		c-0.256,0.866-0.383,1.427-0.383,1.682c0,0.155,0.035,0.273,0.109,0.355c0.072,0.082,0.158,0.123,0.26,0.123
		c0.227,0,0.527-0.159,0.902-0.479c0.219-0.183,0.705-0.743,1.463-1.682l0.451,0.342c-0.84,1.222-1.633,2.083-2.379,2.584
		c-0.512,0.347-1.025,0.52-1.545,0.52c-0.402,0-0.73-0.125-0.984-0.376c-0.256-0.251-0.383-0.572-0.383-0.964
		c0-0.492,0.145-1.244,0.438-2.256l2.283-7.916h-2.064l0.137-0.533c1.002-0.273,1.836-0.682,2.502-1.224
		c0.664-0.542,1.408-1.483,2.229-2.823H277.238z"/>
	<path fill="#5F21FF" d="M286.043,107.221l-0.246,0.902h-1.996l-1.504,5.975c-0.666,2.634-1.336,4.671-2.01,6.111
		c-0.957,2.032-1.988,3.437-3.09,4.211c-0.84,0.593-1.678,0.889-2.516,0.889c-0.547,0-1.012-0.164-1.395-0.492
		c-0.283-0.228-0.424-0.524-0.424-0.889c0-0.292,0.115-0.545,0.348-0.759s0.518-0.321,0.855-0.321c0.246,0,0.453,0.077,0.621,0.232
		c0.17,0.155,0.254,0.333,0.254,0.533s-0.096,0.388-0.287,0.561c-0.146,0.128-0.219,0.224-0.219,0.287
		c0,0.082,0.031,0.146,0.096,0.191c0.082,0.063,0.209,0.096,0.383,0.096c0.391,0,0.805-0.123,1.236-0.369
		c0.434-0.246,0.818-0.613,1.156-1.101c0.336-0.487,0.656-1.191,0.957-2.112c0.127-0.383,0.469-1.646,1.025-3.787l2.379-9.256
		h-2.379l0.191-0.902c0.756,0,1.285-0.053,1.586-0.157s0.576-0.306,0.826-0.602c0.252-0.296,0.576-0.85,0.979-1.661
		c0.537-1.094,1.053-1.941,1.545-2.543c0.674-0.812,1.383-1.42,2.125-1.825c0.744-0.405,1.443-0.608,2.1-0.608
		c0.691,0,1.248,0.176,1.668,0.526c0.418,0.351,0.629,0.731,0.629,1.142c0,0.319-0.105,0.588-0.314,0.807
		c-0.211,0.219-0.479,0.328-0.807,0.328c-0.283,0-0.514-0.082-0.691-0.246s-0.266-0.36-0.266-0.588c0-0.146,0.059-0.326,0.178-0.54
		c0.117-0.214,0.178-0.357,0.178-0.431c0-0.128-0.041-0.224-0.123-0.287c-0.119-0.091-0.293-0.137-0.52-0.137
		c-0.574,0-1.09,0.183-1.545,0.547c-0.611,0.483-1.158,1.239-1.641,2.27c-0.246,0.538-0.697,1.873-1.354,4.006H286.043z"/>
	<path fill="#5F21FF" d="M298.471,111.172c0,1.367-0.363,2.721-1.088,4.061s-1.734,2.401-3.027,3.186
		c-1.295,0.784-2.553,1.176-3.773,1.176c-1.25,0-2.268-0.398-3.057-1.196c-0.787-0.798-1.182-1.83-1.182-3.097
		c0-1.34,0.385-2.685,1.154-4.033c0.771-1.349,1.801-2.415,3.09-3.199c1.291-0.784,2.537-1.176,3.74-1.176s2.193,0.396,2.973,1.189
		S298.471,109.905,298.471,111.172z M296.201,110.229c0-0.848-0.207-1.497-0.623-1.948c-0.414-0.451-0.949-0.677-1.605-0.677
		c-1.34,0-2.572,0.959-3.699,2.878c-1.125,1.919-1.688,3.826-1.688,5.722c0,0.866,0.219,1.533,0.656,2.003s0.988,0.704,1.654,0.704
		c1.285,0,2.49-0.955,3.615-2.864C295.639,114.137,296.201,112.197,296.201,110.229z"/>
	<path fill="#5F21FF" d="M300.986,107.658l4.717-0.766l-1.969,6.645c1.594-2.726,3.043-4.63,4.348-5.715
		c0.738-0.62,1.34-0.93,1.805-0.93c0.301,0,0.537,0.089,0.711,0.267c0.172,0.178,0.26,0.436,0.26,0.772
		c0,0.602-0.156,1.176-0.465,1.723c-0.219,0.41-0.533,0.615-0.943,0.615c-0.211,0-0.391-0.068-0.541-0.205s-0.244-0.347-0.279-0.629
		c-0.02-0.173-0.061-0.287-0.123-0.342c-0.074-0.073-0.16-0.109-0.26-0.109c-0.156,0-0.301,0.036-0.438,0.109
		c-0.238,0.128-0.598,0.483-1.08,1.066c-0.758,0.894-1.578,2.051-2.461,3.473c-0.383,0.602-0.711,1.28-0.984,2.037
		c-0.383,1.039-0.602,1.663-0.656,1.873l-0.438,1.723h-2.092l2.529-8.49c0.291-0.984,0.438-1.687,0.438-2.105
		c0-0.164-0.068-0.301-0.205-0.41c-0.184-0.146-0.424-0.219-0.725-0.219c-0.191,0-0.543,0.041-1.053,0.123L300.986,107.658z"/>
	<path fill="#5F21FF" d="M316.49,106.893l-1.777,6.166c0.793-1.449,1.467-2.538,2.023-3.268c0.865-1.13,1.709-1.95,2.529-2.461
		c0.482-0.292,0.988-0.438,1.518-0.438c0.455,0,0.834,0.146,1.135,0.438s0.451,0.665,0.451,1.121c0,0.446-0.105,1.03-0.314,1.75
		l-0.971,3.473c1.484-2.78,2.893-4.73,4.225-5.852c0.738-0.62,1.467-0.93,2.188-0.93c0.418,0,0.764,0.144,1.031,0.431
		c0.27,0.287,0.404,0.731,0.404,1.333c0,0.528-0.082,1.089-0.246,1.682l-1.504,5.318c-0.328,1.157-0.492,1.8-0.492,1.928
		s0.041,0.237,0.123,0.328c0.055,0.063,0.127,0.096,0.219,0.096c0.09,0,0.25-0.087,0.479-0.26c0.52-0.401,1.006-0.93,1.463-1.586
		l0.451,0.287c-0.229,0.364-0.631,0.866-1.211,1.504c-0.578,0.638-1.072,1.071-1.482,1.299s-0.789,0.342-1.135,0.342
		c-0.32,0-0.586-0.109-0.801-0.328c-0.213-0.219-0.32-0.487-0.32-0.807c0-0.438,0.186-1.317,0.561-2.639l1.244-4.389
		c0.281-1.012,0.432-1.572,0.451-1.682c0.027-0.173,0.041-0.342,0.041-0.506c0-0.228-0.051-0.405-0.15-0.533
		c-0.109-0.128-0.232-0.191-0.369-0.191c-0.383,0-0.789,0.196-1.217,0.588c-1.258,1.157-2.434,2.78-3.527,4.867
		c-0.721,1.376-1.395,3.14-2.023,5.291h-2.064l2.338-8.271c0.254-0.894,0.383-1.49,0.383-1.791c0-0.246-0.051-0.429-0.15-0.547
		c-0.102-0.118-0.225-0.178-0.369-0.178c-0.301,0-0.621,0.109-0.957,0.328c-0.547,0.355-1.252,1.116-2.113,2.283
		s-1.529,2.283-2.002,3.35c-0.229,0.501-0.771,2.11-1.627,4.826h-2.023l2.529-8.859l0.328-1.148
		c0.062-0.173,0.096-0.301,0.096-0.383c0-0.2-0.092-0.381-0.273-0.54c-0.184-0.159-0.416-0.239-0.697-0.239
		c-0.119,0-0.447,0.055-0.984,0.164l-0.123-0.506L316.49,106.893z"/>
</g>
</svg>
